<?xml version="1.0" encoding="utf-8"?>
<svg xmlns="http://www.w3.org/2000/svg" viewBox="0 0 512 512" height="512" width="512" version="1.1">
  <g transform="matrix(1.3333333,0,0,-1.3333333,0,682.66667)" id="g10">
    <path id="path12" style="fill:#f1f0ed;fill-opacity:1;fill-rule:nonzero;stroke:none" d="M 0,0 H 512 V 512 H 0 Z"/>
    <g transform="translate(292.3924,323.3441)" id="g14">
      <path id="path16" style="fill:none;stroke:#050304;stroke-width:6;stroke-linecap:round;stroke-linejoin:round;stroke-miterlimit:10;stroke-dasharray:none;stroke-opacity:1" d="m 0,0 -100.083,-0.75 0.75,-127.511 130.496,-0.498 v 95.651"/>
    </g>
    <g transform="translate(357.4147,359.8754)" id="g18">
      <path id="path20" style="fill:none;stroke:#050304;stroke-width:6;stroke-linecap:round;stroke-linejoin:round;stroke-miterlimit:10;stroke-dasharray:none;stroke-opacity:1" d="M 0,0 H -204.829 V -202.707 H -1 L 0,0"/>
    </g>
    <g id="g22">
      <g id="g24">
        <g transform="translate(306.3253,323.2951)" id="g30">
          <path id="path32" style="fill:#a2a7ef;fill-opacity:1;fill-rule:nonzero;stroke:none" d="m 0,0 c 0,9.536 7.731,17.267 17.267,17.267 9.537,0 17.268,-7.731 17.268,-17.267 0,-9.536 -7.731,-17.267 -17.268,-17.267 C 7.731,-17.267 0,-9.536 0,0"/>
        </g>
      </g>
    </g>
  </g>
</svg>
