<?xml version="1.0" encoding="UTF-8"?>
<svg id="Layer_1" xmlns="http://www.w3.org/2000/svg" width="512" height="512" version="1.1" viewBox="0 0 512 512">
  <!-- Generator: Adobe Illustrator 29.7.1, SVG Export Plug-In . SVG Version: 2.1.1 Build 8)  -->
  <rect x="-41.5" y="-27.5" width="595" height="567" fill="#f1f0ed"/>
  <path d="M292.37,185.66l-100.08.75c-1.66.01-2.99,1.36-2.98,3.02l.75,127.51c0,1.65,1.34,2.98,2.99,2.98l130.5.5c.8,0,1.56-.31,2.13-.87.57-.57.88-1.32.88-2.13v-95.65c0-1.66-1.34-3-3-3s-3,1.34-3,3v92.64s-124.51-.48-124.51-.48l-.71-121.55,97.09-.73c1.66-.01,2.99-1.37,2.98-3.02-.01-1.66-1.37-2.99-3.02-2.98h0Z" fill="#050304"/>
  <path d="M357.41,149.12h-204.83c-.79,0-1.56.32-2.12.88s-.88,1.33-.88,2.12v202.71c0,.79.32,1.56.88,2.12.56.56,1.33.88,2.12.88h203.83c1.65,0,2.99-1.34,3-2.99l1-202.71c0-1.66-1.33-3.01-2.99-3.01-1.66,0-3.01,1.33-3.01,2.99l-.99,199.72h-197.84v-196.71h201.83c1.66,0,3-1.34,3-3s-1.34-3-3-3h0Z" fill="#050304"/>
  <circle cx="323.59" cy="188.7" r="17.27" fill="#a2a7ef"/>
</svg>
